<svg width="39" height="39" viewBox="0 0 39 39" fill="none" xmlns="http://www.w3.org/2000/svg">
<g clip-path="url(#clip0_22_668)">
<path d="M26.8125 2.4375C27.459 2.4375 28.079 2.69431 28.5361 3.15143C28.9932 3.60855 29.25 4.22853 29.25 4.875V34.125C29.25 34.7715 28.9932 35.3915 28.5361 35.8486C28.079 36.3057 27.459 36.5625 26.8125 36.5625H12.1875C11.541 36.5625 10.921 36.3057 10.4639 35.8486C10.0068 35.3915 9.75 34.7715 9.75 34.125V4.875C9.75 4.22853 10.0068 3.60855 10.4639 3.15143C10.921 2.69431 11.541 2.4375 12.1875 2.4375H26.8125ZM12.1875 0C10.8946 0 9.65459 0.513615 8.74035 1.42785C7.82611 2.34209 7.3125 3.58207 7.3125 4.875V34.125C7.3125 35.4179 7.82611 36.6579 8.74035 37.5721C9.65459 38.4864 10.8946 39 12.1875 39H26.8125C28.1054 39 29.3454 38.4864 30.2596 37.5721C31.1739 36.6579 31.6875 35.4179 31.6875 34.125V4.875C31.6875 3.58207 31.1739 2.34209 30.2596 1.42785C29.3454 0.513615 28.1054 0 26.8125 0L12.1875 0Z" fill="#111112"/>
<path d="M19.5 34.125C20.1465 34.125 20.7665 33.8682 21.2236 33.4111C21.6807 32.954 21.9375 32.334 21.9375 31.6875C21.9375 31.041 21.6807 30.421 21.2236 29.9639C20.7665 29.5068 20.1465 29.25 19.5 29.25C18.8535 29.25 18.2335 29.5068 17.7764 29.9639C17.3193 30.421 17.0625 31.041 17.0625 31.6875C17.0625 32.334 17.3193 32.954 17.7764 33.4111C18.2335 33.8682 18.8535 34.125 19.5 34.125Z" fill="#111112"/>
</g>
<defs>
<clipPath id="clip0_22_668">
<rect width="39" height="39" fill="white"/>
</clipPath>
</defs>
</svg>
